<?xml version="1.0" encoding="UTF-8" standalone="no"?>
<!DOCTYPE svg PUBLIC "-//W3C//DTD SVG 1.1//EN" "http://www.w3.org/Graphics/SVG/1.1/DTD/svg11.dtd">
<svg width="100%" height="100%" viewBox="0 0 3000 3000" version="1.1" xmlns="http://www.w3.org/2000/svg" xmlns:xlink="http://www.w3.org/1999/xlink" xml:space="preserve" xmlns:serif="http://www.serif.com/" style="fill-rule:evenodd;clip-rule:evenodd;stroke-linejoin:round;stroke-miterlimit:2;">
    <g id="Layer1">
        <path d="M1002.5,567.053C1002.5,567.053 1225.27,407.206 1473.51,407.38C1781.23,407.596 1975.88,567.053 1975.88,567.053L1247.78,567.053C1247.78,567.053 1212.81,585.595 1213.17,620.89C1213.6,663.171 1247.78,671.316 1247.78,671.316C1247.78,671.316 1853.32,673.198 1929.14,671.316C2069.17,667.842 2244.87,875.833 2244.78,970.129L2244.78,1400.98C2220.81,1543.43 2054.03,1691.82 1975.88,1692.46L1820.45,1692.46C1820.45,1692.46 1738.71,1443.89 1495.51,1443.08C1219.05,1442.14 1158.69,1692.46 1158.69,1692.46L1002.5,1692.46C887.265,1683.66 719.926,1488.96 723.207,1400.98L723.207,970.129C727.531,895.782 858.006,672.813 1087.68,671.316C1110.39,671.168 1132.97,657.521 1133.48,620.89C1133.95,586.789 1109.93,567.818 1087.68,567.053C1078.54,566.738 1002.5,567.053 1002.5,567.053Z" style="fill:white;"/>
        <path d="M500.163,781.233L508.943,1500.98C333.575,1485.96 226.165,1269.48 228.539,1144.92C230.799,1026.33 298.663,818.756 500.163,781.233Z" style="fill:white;"/>
        <g transform="matrix(1,0,0,1,2359.85,-30.5481)">
            <circle cx="318.327" cy="691.519" r="41.124" style="fill:white;"/>
        </g>
        <g transform="matrix(1,0,0,1,-24.5234,-31.4285)">
            <circle cx="318.327" cy="691.519" r="41.124" style="fill:white;"/>
        </g>
        <path d="M2468.7,776.172L2466.3,1502.9C2656.71,1470.03 2741.23,1261.96 2741.63,1140.84C2742.03,1019.72 2663.91,819.306 2468.7,776.172Z" style="fill:white;"/>
        <path d="M1481.51,1563.46C1284.57,1563.53 1237.4,1766.7 1237.4,1766.7C1237.4,1766.7 1375.63,1766.31 1378.74,1766.7C1392.89,1768.5 1407.1,1785.97 1407.03,1804.72C1406.96,1823.06 1394.82,1840.47 1378.74,1842.6C1377.66,1842.75 1237.4,1842.6 1237.4,1842.6L1237.4,1909.25C1237.4,1909.25 1376.84,1909.16 1378.74,1909.25C1398.18,1910.11 1407.66,1928.47 1407.03,1946.96C1406.43,1964.39 1396.85,1982.02 1378.74,1982.59C1376.48,1982.67 1237.4,1982.59 1237.4,1982.59L1237.4,2051.5C1237.4,2051.5 1371.45,2051.37 1378.74,2051.5C1392.68,2051.75 1406.38,2072.36 1407.03,2089.96C1407.56,2104.48 1394.86,2123.89 1378.74,2126.59C1374.82,2127.25 1237.4,2126.59 1237.4,2126.59C1237.4,2126.59 1307.58,2302.63 1481.51,2302.28C1680.84,2301.88 1722.05,2126.59 1722.05,2126.59C1722.05,2126.59 1602.48,2127.08 1591.99,2126.59C1572.2,2125.66 1560.39,2104.82 1560.18,2089.96C1559.92,2072.5 1575.36,2051.88 1591.99,2051.5C1601.89,2051.28 1733.39,2051.5 1733.39,2051.5L1733.39,1982.59C1733.39,1982.59 1601.16,1983.58 1591.99,1982.59C1572.36,1980.49 1560.83,1963.45 1560.18,1946.96C1559.66,1933.87 1567.92,1908.28 1591.99,1909.25C1597.19,1909.46 1733.39,1909.25 1733.39,1909.25L1733.39,1842.6C1733.39,1842.6 1600.65,1842.62 1591.99,1842.6C1581.4,1842.58 1560.24,1834.22 1560.18,1804.72C1560.12,1779.7 1580.72,1766.89 1591.99,1766.7C1600.77,1766.56 1733.39,1766.7 1733.39,1766.7C1733.39,1766.7 1697.16,1563.38 1481.51,1563.46Z" style="fill:white;"/>
        <path d="M1366.08,1142.08C1428.29,1141.98 1405.11,1211.95 1482.57,1212.4C1562.91,1212.86 1544.57,1140.91 1593.13,1142.08C1630.18,1142.97 1634.95,1167.21 1634.43,1181.7C1632.74,1228.71 1579.15,1299.14 1482.57,1299.36C1392.61,1299.56 1332.52,1234.16 1333.19,1181.7C1333.38,1166.84 1336.35,1142.12 1366.08,1142.08Z"/>
        <path d="M767.082,160.947C744.911,161.516 704.292,192.436 679.663,210.47C657.361,226.799 639.063,247.998 619.306,267.328C577.205,308.522 503.954,426.67 506.33,471.988C507.671,497.572 529.044,534.053 548.599,529.765C561.087,527.027 589.042,487.342 619.306,442.862C639.72,412.86 660.422,382.002 679.663,362.339C695.707,345.943 737.119,302.625 767.082,275.304C788.664,255.625 817.081,240.607 823.845,226.179C831.638,209.556 817.642,183.087 807.277,172.745C799.72,165.205 785.03,160.486 767.082,160.947Z" style="fill:white;"/>
        <g transform="matrix(-1,0,0,1,2972.52,-1.26139)">
            <path d="M767.082,160.947C744.911,161.516 704.292,192.436 679.663,210.47C657.361,226.799 639.063,247.998 619.306,267.328C577.205,308.522 503.954,426.67 506.33,471.988C507.671,497.572 529.044,534.053 548.599,529.765C561.087,527.027 589.042,487.342 619.306,442.862C639.72,412.86 660.422,382.002 679.663,362.339C695.707,345.943 737.119,302.625 767.082,275.304C788.664,255.625 817.081,240.607 823.845,226.179C831.638,209.556 817.642,183.087 807.277,172.745C799.72,165.205 785.03,160.486 767.082,160.947Z" style="fill:white;"/>
        </g>
        <g transform="matrix(4.61951,0,0,4.61951,-417.102,-2082.61)">
            <circle cx="318.327" cy="691.519" r="41.124"/>
        </g>
        <g transform="matrix(1.43889,0,0,1.43889,511.343,60.3757)">
            <circle cx="318.327" cy="691.519" r="41.124" style="fill:white;"/>
        </g>
        <g transform="matrix(1,0,0,1,-1,0)">
            <path d="M1485.18,94.126C1181.11,95.056 716.949,313.297 571.996,692.917L600.219,728.513L600.219,896.509C767.156,492.146 1081.34,233.967 1485.18,233.761C1844.84,233.577 2218.11,476.33 2361.87,896.509L2361.87,728.513L2396.43,692.917C2235.74,295.864 1794.63,93.179 1485.18,94.126Z" style="fill:white;"/>
        </g>
        <g transform="matrix(4.61951,0,0,4.61951,448.87,-2086.81)">
            <circle cx="318.327" cy="691.519" r="41.124"/>
        </g>
        <g transform="matrix(1.43889,0,0,1.43889,1372.22,60.2586)">
            <circle cx="318.327" cy="691.519" r="41.124" style="fill:white;"/>
        </g>
        <g transform="matrix(1,0,0,1,0,-1.29416)">
            <path d="M771.266,1739.02C771.266,1739.02 772.582,2214.37 777.052,2245.38C795.942,2376.41 943.104,2518.6 1057.32,2524.72C1067.09,2525.25 1209.34,2524.72 1209.34,2524.72C1043.29,2452.68 921.551,2284.16 909.528,2147.47C906.797,2116.42 909.528,1838.58 909.528,1838.58C848.239,1804.01 814.916,1780.6 771.266,1739.02Z" style="fill:white;"/>
        </g>
        <g transform="matrix(-1,0,0,1,2972.16,-1.29416)">
            <path d="M771.266,1739.02C771.266,1739.02 772.582,2214.37 777.052,2245.38C795.942,2376.41 943.104,2518.6 1057.32,2524.72C1067.09,2525.25 1209.34,2524.72 1209.34,2524.72C1043.29,2452.68 921.551,2284.16 909.528,2147.47C906.797,2116.42 909.528,1838.58 909.528,1838.58C848.239,1804.01 814.916,1780.6 771.266,1739.02Z" style="fill:white;"/>
        </g>
        <path d="M1769.59,2825.89C1769.59,2849.73 1750.24,2869.08 1726.4,2869.08L1240.59,2869.08C1216.75,2869.08 1197.4,2849.73 1197.4,2825.89C1197.4,2802.06 1216.75,2782.71 1240.59,2782.71L1726.4,2782.71C1750.24,2782.71 1769.59,2802.06 1769.59,2825.89Z" style="fill:white;"/>
        <path d="M1525.09,2568.63L1525.09,2680.01C1525.09,2692.2 1515.19,2702.09 1503.01,2702.09L1458.38,2702.09C1446.19,2702.09 1436.3,2692.2 1436.3,2680.01L1436.3,2568.63C1436.3,2556.45 1446.19,2546.55 1458.38,2546.55L1503.01,2546.55C1515.19,2546.55 1525.09,2556.45 1525.09,2568.63Z" style="fill:white;"/>
        <path d="M694.435,2146.28L695.66,2240.99C628.718,2240.99 582.676,2185.41 551.152,2091.22C587.561,2123.19 632.094,2145.41 694.435,2146.28Z" style="fill:white;"/>
        <path d="M692.347,1822.17L692.347,2058.47C628.82,2046.1 559.318,2017.98 558.206,1982.14C556.238,1918.77 623.03,1850.39 692.347,1822.17Z" style="fill:white;"/>
        <g transform="matrix(-1,0,0,1,2968.16,1.797)">
            <path d="M694.435,2146.28L695.66,2240.99C628.718,2240.99 582.676,2185.41 551.152,2091.22C587.561,2123.19 632.094,2145.41 694.435,2146.28Z" style="fill:white;"/>
        </g>
        <g transform="matrix(-1,0,0,1,2968.16,1.797)">
            <path d="M692.347,1822.17L692.347,2058.47C628.82,2046.1 559.318,2017.98 558.206,1982.14C556.238,1918.77 623.03,1850.39 692.347,1822.17Z" style="fill:white;"/>
        </g>
        <path d="M1093.53,1818.34C1051.15,1818.36 1044.21,1853.21 1044.21,1853.21C1044.21,1853.21 1036.23,2075.59 1044.21,2115.18C1102.45,2404.07 1319.67,2479.58 1487.2,2479.76C1709.23,2480.01 1898.61,2319.23 1929.94,2115.18C1936.95,2069.52 1929.94,1853.21 1929.94,1853.21C1929.94,1853.21 1910.79,1817.64 1882.15,1818.34C1848.66,1819.16 1833.13,1853.21 1833.13,1853.21C1833.13,1853.21 1836.02,2098.03 1833.13,2115.18C1811.58,2243.47 1663.37,2386.78 1487.2,2388.86C1308.01,2390.97 1156.29,2225.37 1144.45,2115.18C1142.32,2095.36 1144.45,1853.21 1144.45,1853.21C1144.45,1853.21 1132.39,1818.32 1093.53,1818.34Z" style="fill:white;"/>
    </g>
</svg>
