<?xml version="1.0" encoding="UTF-8" standalone="no"?>
<!DOCTYPE svg PUBLIC "-//W3C//DTD SVG 1.1//EN" "http://www.w3.org/Graphics/SVG/1.1/DTD/svg11.dtd">
<svg width="100%" height="100%" viewBox="0 0 1703 815" version="1.1" xmlns="http://www.w3.org/2000/svg" xmlns:xlink="http://www.w3.org/1999/xlink" xml:space="preserve" xmlns:serif="http://www.serif.com/" style="fill-rule:evenodd;clip-rule:evenodd;stroke-linecap:round;stroke-linejoin:round;stroke-miterlimit:1.5;">
    <g transform="matrix(1,0,0,1,-626.115,-1984.57)">
        <g transform="matrix(1,0,0,1,377.224,-1.22831)">
            <g transform="matrix(0.723732,0,0,0.723732,-527.067,1514.07)">
                <g id="Layer1">
                    <g transform="matrix(0.573803,0,0,0.573803,659.071,398.442)">
                        <path d="M1877.63,1558.29L2078.04,1960.62L1880.16,2045.84L1877.63,1558.29Z" style="fill:url(#_Linear1);stroke:black;stroke-width:15.05px;"/>
                    </g>
                    <g transform="matrix(0.573803,0,0,0.573803,659.071,398.442)">
                        <path d="M1052.01,1775.84L1070.25,1626.16L879.384,1935.72L947.431,1876.44L1052.01,1775.84Z" style="fill:white;stroke:black;stroke-width:15.05px;"/>
                    </g>
                    <g transform="matrix(0.573803,0,0,0.573803,659.071,398.442)">
                        <path d="M1861.84,1194.99L2062.17,1188.15L2090.32,1188.15L2171.94,1205.44L1707.08,992.242L1861.84,1194.99Z" style="fill:url(#_Linear2);stroke:black;stroke-width:15.05px;"/>
                    </g>
                    <g transform="matrix(0.573803,0,0,0.573803,659.071,398.442)">
                        <path d="M1877.63,1558.29L1861.84,1194.99L1655.07,1330.46L1877.63,1558.29Z" style="fill:white;stroke:black;stroke-width:15.05px;"/>
                    </g>
                    <g transform="matrix(0.573803,0,0,0.573803,659.071,398.442)">
                        <path d="M2171.94,1205.44L1973.61,917.219L1808.79,903.431L2171.94,1205.44Z" style="fill:url(#_Linear3);stroke:black;stroke-width:15.05px;"/>
                    </g>
                    <g transform="matrix(0.573803,0,0,0.573803,659.071,398.442)">
                        <path d="M1308.2,2381.07L1400.89,2315.69L1623.03,2043.63L1589.67,1849.32L1308.2,2381.07Z" style="fill:url(#_Linear4);stroke:black;stroke-width:15.05px;"/>
                    </g>
                    <g transform="matrix(0.573803,0,0,0.573803,659.071,398.442)">
                        <path d="M1973.61,917.219L2078.7,929.421L1891.9,813.868L1808.79,903.431L1973.61,917.219Z" style="fill:url(#_Linear5);stroke:black;stroke-width:15.05px;"/>
                    </g>
                    <g transform="matrix(0.573803,0,0,0.573803,659.071,398.442)">
                        <path d="M1052.01,1775.84L1026.71,2034.78L907.904,2185.37L947.431,1876.44L1052.01,1775.84Z" style="fill:white;stroke:black;stroke-width:15.05px;"/>
                    </g>
                    <g transform="matrix(0.573803,0,0,0.573803,659.071,398.442)">
                        <path d="M1272.89,1326.37L984.395,1385.4L1140.27,1245.86L1272.89,1326.37Z" style="fill:url(#_Linear6);stroke:black;stroke-width:15.05px;"/>
                    </g>
                    <g transform="matrix(0.573803,0,0,0.573803,659.071,398.442)">
                        <path d="M747.367,1259.53L804.035,1331.84L784.416,1362.77L753.737,1327.81L740.715,1251.04L741.796,1252.42L741.844,1252.67L747.367,1259.53Z" style="fill:white;stroke:black;stroke-width:15.05px;"/>
                    </g>
                    <g transform="matrix(0.573803,0,0,0.573803,659.071,398.442)">
                        <path d="M1161.29,2394.18L1308.2,2381.07L1281.81,1935.72L1086.87,2300.08L1161.29,2394.18Z" style="fill:url(#_Linear7);stroke:black;stroke-width:15.05px;"/>
                    </g>
                    <g transform="matrix(0.573803,0,0,0.573803,659.071,398.442)">
                        <path d="M775.704,1133.79L727.443,1177.41L804.035,1196.71L874.421,1155.05L793.394,1137.24L775.704,1133.79Z" style="fill:rgb(98,98,98);stroke:black;stroke-width:15.05px;"/>
                    </g>
                    <g transform="matrix(0.573803,0,0,0.573803,659.071,398.442)">
                        <path d="M1529.56,1644.69L1746.07,1832.8L1655.07,1330.46L1529.56,1644.69Z" style="fill:url(#_Linear8);stroke:black;stroke-width:15.05px;"/>
                    </g>
                    <g transform="matrix(0.573803,0,0,0.573803,659.071,398.442)">
                        <path d="M984.395,1385.4L896.218,1206.84L1140.27,1245.86L984.395,1385.4Z" style="fill:url(#_Linear9);stroke:black;stroke-width:15.05px;"/>
                    </g>
                    <g transform="matrix(0.573803,0,0,0.573803,659.071,398.442)">
                        <path d="M1140.27,1245.86L1272.89,1326.37L1435.32,1250.26L1140.27,1245.86Z" style="fill:url(#_Linear10);stroke:black;stroke-width:15.05px;"/>
                    </g>
                    <g transform="matrix(0.573803,0,0,0.573803,659.071,398.442)">
                        <path d="M1749.16,713.828L1945.59,815.036L1891.9,813.868L1808.79,903.431L1749.16,713.828Z" style="fill:white;stroke:black;stroke-width:15.05px;"/>
                    </g>
                    <g transform="matrix(0.573803,0,0,0.573803,659.071,398.442)">
                        <path d="M1400.89,2315.69L1871.97,2043.63L1623.03,2043.63L1400.89,2315.69Z" style="fill:url(#_Linear11);stroke:black;stroke-width:15.05px;"/>
                    </g>
                    <g transform="matrix(0.573803,0,0,0.573803,659.071,398.442)">
                        <path d="M1026.71,2034.78L1369.2,1475.09L1281.81,1935.72L1026.71,2034.78Z" style="fill:white;stroke:black;stroke-width:15.05px;"/>
                    </g>
                    <g transform="matrix(0.573803,0,0,0.573803,659.071,398.442)">
                        <path d="M1749.16,713.828L1530.46,449.086L1635.26,738.57L1707.08,992.242L1749.16,713.828Z" style="fill:white;stroke:black;stroke-width:15.05px;"/>
                    </g>
                    <g transform="matrix(0.573803,0,0,0.573803,659.071,398.442)">
                        <path d="M1272.89,1326.37L1369.2,1475.09L1435.32,1250.26L1272.89,1326.37Z" style="fill:url(#_Linear12);stroke:black;stroke-width:15.05px;"/>
                    </g>
                    <g transform="matrix(0.573803,0,0,0.573803,659.071,398.442)">
                        <path d="M1330.23,678.195L1465.17,629.088L1451.1,775.334L1226.7,878.235L1062.69,860.599L1174.33,759.182L1330.23,678.195Z" style="fill:white;stroke:black;stroke-width:15.05px;"/>
                    </g>
                    <g transform="matrix(0.573803,0,0,0.573803,659.071,398.442)">
                        <path d="M1655.07,1330.46L1861.84,1194.99L1688.68,1127.81L1655.07,1330.46Z" style="fill:url(#_Linear13);stroke:black;stroke-width:15.05px;"/>
                    </g>
                    <g transform="matrix(0.573803,0,0,0.573803,659.071,398.442)">
                        <path d="M2171.94,1205.44L1707.08,992.242L1808.79,903.431L2171.94,1205.44Z" style="fill:white;stroke:black;stroke-width:15.05px;"/>
                    </g>
                    <g transform="matrix(0.573803,0,0,0.573803,659.071,398.442)">
                        <path d="M1861.84,1194.99L1707.08,992.242L1688.68,1127.81L1861.84,1194.99Z" style="fill:white;stroke:black;stroke-width:15.05px;"/>
                    </g>
                    <g transform="matrix(0.573803,0,0,0.573803,659.071,398.442)">
                        <path d="M1877.63,1558.29L1746.07,1832.8L1655.07,1330.46L1877.63,1558.29Z" style="fill:white;stroke:black;stroke-width:15.05px;"/>
                    </g>
                    <g transform="matrix(0.573803,0,0,0.573803,659.071,398.442)">
                        <path d="M1435.32,1250.26L1529.56,1644.69L1655.07,1330.46L1435.32,1250.26Z" style="fill:white;stroke:black;stroke-width:15.05px;"/>
                    </g>
                    <g transform="matrix(0.573803,0,0,0.573803,659.071,398.442)">
                        <path d="M1871.97,2043.63L1589.67,1849.32L1623.03,2043.63L1871.97,2043.63Z" style="fill:url(#_Linear14);stroke:black;stroke-width:15.05px;"/>
                    </g>
                    <g transform="matrix(0.573803,0,0,0.573803,659.071,398.442)">
                        <path d="M874.886,1155.82L805.85,1197.29L727.913,1178.93L741.796,1252.42L747.367,1259.53L805.85,1332.11L808.804,1328.05L808.063,1327.81L895.506,1207.82L889.605,1192.15L874.886,1155.82Z" style="stroke:black;stroke-width:15.05px;"/>
                    </g>
                    <g transform="matrix(0.573803,0,0,0.573803,659.071,398.442)">
                        <path d="M1531.16,1174.02L1655.07,1330.46L1688.68,1127.81L1443,1040.76L1531.16,1174.02Z" style="fill:url(#_Linear15);stroke:black;stroke-width:15.05px;"/>
                    </g>
                    <g transform="matrix(0.573803,0,0,0.573803,659.071,398.442)">
                        <path d="M1531.16,1174.02L1435.32,1250.26L1334.68,1062.02L1531.16,1174.02Z" style="fill:white;stroke:black;stroke-width:15.05px;"/>
                    </g>
                    <g transform="matrix(0.573803,0,0,0.573803,659.071,398.442)">
                        <path d="M1451.1,775.334L1226.7,878.235L1387.2,903.997L1451.1,775.334Z" style="fill:white;stroke:black;stroke-width:15.05px;"/>
                    </g>
                    <g transform="matrix(0.573803,0,0,0.573803,659.071,398.442)">
                        <path d="M1062.69,860.599L1226.7,878.235L1065.75,1037.99L1062.69,860.599Z" style="fill:white;stroke:black;stroke-width:15.05px;"/>
                    </g>
                    <g transform="matrix(0.573803,0,0,0.573803,659.071,398.442)">
                        <path d="M1138.85,1245.37L1138.74,1245.47L1435.32,1250.26L1334.68,1062.02L1138.94,1245.38L1138.85,1245.37Z" style="fill:white;stroke:black;stroke-width:15.05px;"/>
                    </g>
                    <g transform="matrix(0.573803,0,0,0.573803,659.071,398.442)">
                        <path d="M1334.68,1062.02L1215.17,992.409L1387.2,903.997L1334.68,1062.02Z" style="fill:white;stroke:black;stroke-width:15.05px;"/>
                    </g>
                    <g transform="matrix(0.573803,0,0,0.573803,659.071,398.442)">
                        <path d="M1215.17,992.409L1226.7,878.235L1387.2,903.997L1215.17,992.409Z" style="fill:url(#_Linear16);stroke:black;stroke-width:15.05px;"/>
                    </g>
                    <g transform="matrix(0.573803,0,0,0.573803,659.071,398.442)">
                        <path d="M808.804,1328.05L984.395,1385.4L896.218,1206.84L895.506,1207.82L895.771,1208.52L808.804,1328.05Z" style="fill:url(#_Linear17);stroke:black;stroke-width:15.05px;"/>
                    </g>
                    <g transform="matrix(0.573803,0,0,0.573803,659.071,398.442)">
                        <path d="M879.384,1935.72L907.904,2185.37L947.431,1876.44L879.384,1935.72Z" style="fill:url(#_Linear18);stroke:black;stroke-width:15.05px;"/>
                    </g>
                    <g transform="matrix(0.573803,0,0,0.573803,659.071,398.442)">
                        <path d="M1707.08,992.242L1688.68,1127.81L1443,1040.76L1707.08,992.242Z" style="fill:white;stroke:black;stroke-width:15.05px;"/>
                    </g>
                    <g transform="matrix(0.573803,0,0,0.573803,659.071,398.442)">
                        <path d="M1707.08,992.242L1451.1,775.334L1387.2,903.997L1443,1040.76L1707.08,992.242Z" style="fill:white;stroke:black;stroke-width:15.05px;"/>
                    </g>
                    <g transform="matrix(0.573803,0,0,0.573803,659.071,398.442)">
                        <path d="M1529.47,1645.13L1589.67,1849.32L1281.81,1935.72L1529.47,1645.13Z" style="fill:url(#_Linear19);stroke:black;stroke-width:15.05px;"/>
                    </g>
                    <g transform="matrix(0.573803,0,0,0.573803,659.071,398.442)">
                        <path d="M1369.2,1475.09L1281.81,1935.72L1529.47,1645.13L1369.2,1475.09Z" style="fill:white;stroke:black;stroke-width:15.05px;"/>
                    </g>
                    <g transform="matrix(0.573803,0,0,0.573803,659.071,398.442)">
                        <path d="M1281.81,1935.72L1026.71,2034.78L1086.87,2300.08L1281.81,1935.72Z" style="fill:url(#_Linear20);stroke:black;stroke-width:15.05px;"/>
                    </g>
                    <g transform="matrix(0.573803,0,0,0.573803,659.071,398.442)">
                        <path d="M1529.47,1645.13L1435.32,1250.26L1369.2,1475.09L1529.47,1645.13Z" style="fill:url(#_Linear21);stroke:black;stroke-width:15.05px;"/>
                    </g>
                    <g transform="matrix(0.573803,0,0,0.573803,659.071,398.442)">
                        <path d="M1308.2,2381.07L1281.81,1935.72L1589.67,1849.32L1308.2,2381.07Z" style="fill:url(#_Linear22);stroke:black;stroke-width:15.05px;"/>
                    </g>
                    <g transform="matrix(0.573803,0,0,0.573803,659.071,398.442)">
                        <path d="M1435.32,1250.26L1655.07,1330.46L1531.16,1174.02L1435.32,1250.26Z" style="fill:url(#_Linear23);stroke:black;stroke-width:15.05px;"/>
                    </g>
                    <g transform="matrix(0.573803,0,0,0.573803,659.071,398.442)">
                        <path d="M1387.2,903.997L1334.68,1062.02L1443,1040.76L1387.2,903.997Z" style="fill:url(#_Linear24);stroke:black;stroke-width:15.05px;"/>
                    </g>
                    <g transform="matrix(0.573803,0,0,0.573803,659.071,398.442)">
                        <path d="M1443,1040.76L1531.16,1174.02L1334.68,1062.02L1443,1040.76Z" style="fill:url(#_Linear25);stroke:black;stroke-width:15.05px;"/>
                    </g>
                    <g transform="matrix(0.573803,0,0,0.573803,659.071,398.442)">
                        <path d="M1026.71,2315.28L932.115,2154.68L1026.71,2034.78L1086.87,2300.08L1026.71,2315.28Z" style="fill:url(#_Linear26);stroke:black;stroke-width:15.05px;"/>
                    </g>
                    <g transform="matrix(0.573803,0,0,0.573803,659.071,398.442)">
                        <path d="M1065.75,1037.99L1155.91,1093.05L1215.17,992.409L1226.7,878.235L1065.75,1037.99Z" style="fill:url(#_Linear27);stroke:black;stroke-width:15.05px;"/>
                    </g>
                    <g transform="matrix(0.573803,0,0,0.573803,659.071,398.442)">
                        <path d="M793.394,1137.24L873.688,1152.86L874.886,1155.82L875.726,1155.31L889.605,1192.15L895.355,1206.35L1138.85,1245.37L1334.68,1062.02L1155.91,1093.05L1065.75,1037.99L773.905,1133.44L775.704,1133.79L776.102,1133.43L793.394,1137.24Z" style="fill:white;stroke:black;stroke-width:15.05px;"/>
                    </g>
                    <g transform="matrix(0.573803,0,0,0.573803,659.071,398.442)">
                        <path d="M1465.17,629.088L1530.46,449.086L1635.26,738.57L1707.08,992.242L1616.91,782.555L1534.6,558.667L1451.1,775.334L1465.17,629.088Z" style="fill:url(#_Linear28);stroke:black;stroke-width:15.05px;"/>
                    </g>
                    <g transform="matrix(0.573803,0,0,0.573803,659.071,398.442)">
                        <path d="M1062.69,860.599L1019.07,1053.26L1065.75,1037.99L1062.69,860.599Z" style="fill:url(#_Linear29);stroke:black;stroke-width:15.05px;"/>
                    </g>
                    <g transform="matrix(0.573803,0,0,0.573803,659.071,398.442)">
                        <path d="M1174.33,759.182L1248.4,477.98L1330.23,678.195L1302.28,692.716L1262.4,582.37L1217.35,736.835L1174.33,759.182Z" style="fill:url(#_Linear30);stroke:black;stroke-width:15.05px;"/>
                    </g>
                    <g transform="matrix(0.573803,0,0,0.573803,659.071,398.442)">
                        <path d="M1248.4,477.98L1410.51,648.979L1330.23,678.195L1248.4,477.98Z" style="fill:white;stroke:black;stroke-width:15.05px;"/>
                    </g>
                    <g transform="matrix(0.573803,0,0,0.573803,659.071,398.442)">
                        <path d="M2157.76,1403L2228.95,1434.22L2063.15,1188.36L1861.84,1194.99L2157.76,1403Z" style="fill:url(#_Linear31);stroke:black;stroke-width:15.05px;"/>
                    </g>
                    <g transform="matrix(0.573803,0,0,0.573803,659.071,398.442)">
                        <path d="M2011.56,1516.99L2250.88,1910.97L2197.79,1552.99L2011.56,1516.99Z" style="fill:white;stroke:black;stroke-width:15.05px;"/>
                    </g>
                    <g transform="matrix(0.573803,0,0,0.573803,659.071,398.442)">
                        <path d="M2157.76,1403L2252.89,1600.08L2197.79,1552.99L1861.84,1194.99L2157.76,1403Z" style="fill:white;stroke:black;stroke-width:15.05px;"/>
                    </g>
                    <g transform="matrix(0.573803,0,0,0.573803,659.071,398.442)">
                        <path d="M1861.84,1194.99L2011.56,1516.99L2197.79,1552.99L1861.84,1194.99Z" style="fill:url(#_Linear32);stroke:black;stroke-width:15.05px;"/>
                    </g>
                    <g transform="matrix(0.573803,0,0,0.573803,659.071,398.442)">
                        <path d="M938.142,1573.48L1020.67,1566.57L992.367,1617.75L902.129,1612.66L927.987,1586.82L938.142,1573.48Z" style="fill:url(#_Linear33);stroke:black;stroke-width:15.05px;"/>
                    </g>
                    <g transform="matrix(0.573803,0,0,0.573803,659.071,398.442)">
                        <path d="M938.142,1573.48L968.165,1534.05L835.945,1534.05L854.279,1660.49L902.129,1612.66L901.319,1612.62L927.46,1586.72L937.089,1573.57L938.142,1573.48Z" style="fill:white;stroke:black;stroke-width:15.05px;"/>
                    </g>
                    <g transform="matrix(0.573803,0,0,0.573803,659.071,398.442)">
                        <path d="M967.216,1534.05L1027.64,1454.76L835.945,1534.05L967.216,1534.05Z" style="fill:url(#_Linear34);stroke:black;stroke-width:15.05px;"/>
                    </g>
                    <g transform="matrix(0.573803,0,0,0.573803,659.071,398.442)">
                        <path d="M1191.07,1508.74L1088.11,1527.63L1254.88,1432.71L1363.96,1477.01L1360.41,1477.66L1361.47,1477.12L1191.07,1508.74Z" style="fill:url(#_Linear35);stroke:black;stroke-width:15.05px;"/>
                    </g>
                    <g transform="matrix(0.573803,0,0,0.573803,659.071,398.442)">
                        <path d="M1020.67,1566.57L1036.94,1554.5L1070.25,1626.16L992.367,1617.75L1020.67,1566.57Z" style="fill:url(#_Linear36);stroke:black;stroke-width:15.05px;"/>
                    </g>
                    <g transform="matrix(0.573803,0,0,0.573803,659.071,398.442)">
                        <path d="M835.945,1534.05L916.477,1433.58L1069.46,1400.15L1027.64,1454.76L835.945,1534.05Z" style="fill:url(#_Linear37);stroke:black;stroke-width:15.05px;"/>
                    </g>
                    <g transform="matrix(0.573803,0,0,0.573803,659.071,398.442)">
                        <path d="M1070.25,1626.16L1360.41,1477.66L1191.07,1508.74L1086.87,1528.08L1036.94,1554.5L1070.25,1626.16Z" style="fill:white;stroke:black;stroke-width:15.05px;"/>
                    </g>
                </g>
            </g>
            <g transform="matrix(1,0,0,1,0,86.1871)">
                <g transform="matrix(0.478604,0,0,0.478604,709.58,978.958)">
                    <g transform="matrix(738.264,0,0,738.264,2637.24,2636.96)">
                    </g>
                    <text x="496.271px" y="2636.96px" style="font-family:'SometypeMono-Regular', 'Sometype Mono', monospace;font-size:738.264px;fill:rgb(245,158,11);">Ziggy</text>
                </g>
                <g transform="matrix(1,0,0,1,961.584,2623.09)">
                    <text x="0px" y="0px" style="font-family:'SometypeMono-Regular', 'Sometype Mono', monospace;font-size:353.336px;fill:white;">labs</text>
                </g>
            </g>
        </g>
    </g>
    <defs>
        <linearGradient id="_Linear1" x1="0" y1="0" x2="1" y2="0" gradientUnits="userSpaceOnUse" gradientTransform="matrix(206.863,-227.545,227.545,206.863,1491.5,2330.26)"><stop offset="0" style="stop-color:white;stop-opacity:1"/><stop offset="1" style="stop-color:rgb(179,179,179);stop-opacity:1"/></linearGradient>
        <linearGradient id="_Linear2" x1="0" y1="0" x2="1" y2="0" gradientUnits="userSpaceOnUse" gradientTransform="matrix(-201.287,-73.223,73.223,-201.287,2038.7,1166.48)"><stop offset="0" style="stop-color:white;stop-opacity:1"/><stop offset="1" style="stop-color:rgb(179,179,179);stop-opacity:1"/></linearGradient>
        <linearGradient id="_Linear3" x1="0" y1="0" x2="1" y2="0" gradientUnits="userSpaceOnUse" gradientTransform="matrix(-158.887,-144.705,144.705,-158.887,2073.55,1098.13)"><stop offset="0" style="stop-color:white;stop-opacity:1"/><stop offset="1" style="stop-color:rgb(179,179,179);stop-opacity:1"/></linearGradient>
        <linearGradient id="_Linear4" x1="0" y1="0" x2="1" y2="0" gradientUnits="userSpaceOnUse" gradientTransform="matrix(-137.633,230.382,-230.382,-137.633,1563.7,1998.03)"><stop offset="0" style="stop-color:rgb(201,201,201);stop-opacity:1"/><stop offset="1" style="stop-color:rgb(98,98,98);stop-opacity:1"/></linearGradient>
        <linearGradient id="_Linear5" x1="0" y1="0" x2="1" y2="0" gradientUnits="userSpaceOnUse" gradientTransform="matrix(-152.764,-47.245,47.245,-152.764,2044.69,906.784)"><stop offset="0" style="stop-color:white;stop-opacity:1"/><stop offset="1" style="stop-color:rgb(179,179,179);stop-opacity:1"/></linearGradient>
        <linearGradient id="_Linear6" x1="0" y1="0" x2="1" y2="0" gradientUnits="userSpaceOnUse" gradientTransform="matrix(117.775,-119.265,119.265,117.775,1076.63,1399.44)"><stop offset="0" style="stop-color:white;stop-opacity:1"/><stop offset="1" style="stop-color:rgb(179,179,179);stop-opacity:1"/></linearGradient>
        <linearGradient id="_Linear7" x1="0" y1="0" x2="1" y2="0" gradientUnits="userSpaceOnUse" gradientTransform="matrix(78.2386,-299.577,299.577,78.2386,1166.23,2421.05)"><stop offset="0" style="stop-color:rgb(217,217,217);stop-opacity:1"/><stop offset="1" style="stop-color:rgb(104,104,104);stop-opacity:1"/></linearGradient>
        <linearGradient id="_Linear8" x1="0" y1="0" x2="1" y2="0" gradientUnits="userSpaceOnUse" gradientTransform="matrix(-23.446,-223.443,223.443,-23.446,1663.39,1724.08)"><stop offset="0" style="stop-color:rgb(242,242,242);stop-opacity:1"/><stop offset="1" style="stop-color:rgb(134,134,134);stop-opacity:1"/></linearGradient>
        <linearGradient id="_Linear9" x1="0" y1="0" x2="1" y2="0" gradientUnits="userSpaceOnUse" gradientTransform="matrix(48.15,-308.943,308.943,48.15,990.542,1360.56)"><stop offset="0" style="stop-color:white;stop-opacity:1"/><stop offset="1" style="stop-color:rgb(179,179,179);stop-opacity:1"/></linearGradient>
        <linearGradient id="_Linear10" x1="0" y1="0" x2="1" y2="0" gradientUnits="userSpaceOnUse" gradientTransform="matrix(326.106,-91.5076,91.5076,326.106,1137.42,1280.86)"><stop offset="0" style="stop-color:white;stop-opacity:1"/><stop offset="1" style="stop-color:rgb(179,179,179);stop-opacity:1"/></linearGradient>
        <linearGradient id="_Linear11" x1="0" y1="0" x2="1" y2="0" gradientUnits="userSpaceOnUse" gradientTransform="matrix(185.997,-256.104,256.104,185.997,1513.49,2334.77)"><stop offset="0" style="stop-color:white;stop-opacity:1"/><stop offset="1" style="stop-color:rgb(221,221,221);stop-opacity:1"/></linearGradient>
        <linearGradient id="_Linear12" x1="0" y1="0" x2="1" y2="0" gradientUnits="userSpaceOnUse" gradientTransform="matrix(123.31,-102.495,102.495,123.31,1270.92,1410.32)"><stop offset="0" style="stop-color:white;stop-opacity:1"/><stop offset="1" style="stop-color:rgb(179,179,179);stop-opacity:1"/></linearGradient>
        <linearGradient id="_Linear13" x1="0" y1="0" x2="1" y2="0" gradientUnits="userSpaceOnUse" gradientTransform="matrix(-93.3698,-142.584,142.584,-93.3698,1796.78,1289.84)"><stop offset="0" style="stop-color:white;stop-opacity:1"/><stop offset="1" style="stop-color:rgb(179,179,179);stop-opacity:1"/></linearGradient>
        <linearGradient id="_Linear14" x1="0" y1="0" x2="1" y2="0" gradientUnits="userSpaceOnUse" gradientTransform="matrix(-142.709,-98.2029,98.2029,-142.709,1777.28,2019.71)"><stop offset="0" style="stop-color:rgb(215,215,215);stop-opacity:1"/><stop offset="1" style="stop-color:rgb(114,114,114);stop-opacity:1"/></linearGradient>
        <linearGradient id="_Linear15" x1="0" y1="0" x2="1" y2="0" gradientUnits="userSpaceOnUse" gradientTransform="matrix(112.623,-97.1874,97.1874,112.623,1548.82,1239.74)"><stop offset="0" style="stop-color:white;stop-opacity:1"/><stop offset="1" style="stop-color:rgb(179,179,179);stop-opacity:1"/></linearGradient>
        <linearGradient id="_Linear16" x1="0" y1="0" x2="1" y2="0" gradientUnits="userSpaceOnUse" gradientTransform="matrix(91.28,-83.7794,83.7794,91.28,1175.4,995.133)"><stop offset="0" style="stop-color:white;stop-opacity:1"/><stop offset="1" style="stop-color:rgb(179,179,179);stop-opacity:1"/></linearGradient>
        <linearGradient id="_Linear17" x1="0" y1="0" x2="1" y2="0" gradientUnits="userSpaceOnUse" gradientTransform="matrix(-6.15066,-266.243,266.243,-6.15066,889.911,1370.09)"><stop offset="0" style="stop-color:white;stop-opacity:1"/><stop offset="1" style="stop-color:rgb(179,179,179);stop-opacity:1"/></linearGradient>
        <linearGradient id="_Linear18" x1="0" y1="0" x2="1" y2="0" gradientUnits="userSpaceOnUse" gradientTransform="matrix(71.5086,-129.281,129.281,71.5086,839.413,2085.95)"><stop offset="0" style="stop-color:white;stop-opacity:1"/><stop offset="1" style="stop-color:rgb(122,122,122);stop-opacity:1"/></linearGradient>
        <linearGradient id="_Linear19" x1="0" y1="0" x2="1" y2="0" gradientUnits="userSpaceOnUse" gradientTransform="matrix(153.507,-145.728,145.728,153.507,1365.84,1888.9)"><stop offset="0" style="stop-color:white;stop-opacity:1"/><stop offset="1" style="stop-color:rgb(179,179,179);stop-opacity:1"/></linearGradient>
        <linearGradient id="_Linear20" x1="0" y1="0" x2="1" y2="0" gradientUnits="userSpaceOnUse" gradientTransform="matrix(102.098,-138.278,138.278,102.098,1080.22,2163.54)"><stop offset="0" style="stop-color:white;stop-opacity:1"/><stop offset="1" style="stop-color:rgb(179,179,179);stop-opacity:1"/></linearGradient>
        <linearGradient id="_Linear21" x1="0" y1="0" x2="1" y2="0" gradientUnits="userSpaceOnUse" gradientTransform="matrix(-65.6641,-278.765,278.765,-65.6641,1495.69,1652.89)"><stop offset="0" style="stop-color:white;stop-opacity:1"/><stop offset="1" style="stop-color:rgb(179,179,179);stop-opacity:1"/></linearGradient>
        <linearGradient id="_Linear22" x1="0" y1="0" x2="1" y2="0" gradientUnits="userSpaceOnUse" gradientTransform="matrix(123.183,-177.549,177.549,123.183,1350.45,2122.93)"><stop offset="0" style="stop-color:white;stop-opacity:1"/><stop offset="1" style="stop-color:rgb(179,179,179);stop-opacity:1"/></linearGradient>
        <linearGradient id="_Linear23" x1="0" y1="0" x2="1" y2="0" gradientUnits="userSpaceOnUse" gradientTransform="matrix(-296.621,-437.095,437.095,-296.621,1606.67,1408.6)"><stop offset="0" style="stop-color:white;stop-opacity:1"/><stop offset="1" style="stop-color:rgb(179,179,179);stop-opacity:1"/></linearGradient>
        <linearGradient id="_Linear24" x1="0" y1="0" x2="1" y2="0" gradientUnits="userSpaceOnUse" gradientTransform="matrix(-234.319,198.058,-198.058,-234.319,1462.53,933.99)"><stop offset="0" style="stop-color:white;stop-opacity:1"/><stop offset="1" style="stop-color:rgb(179,179,179);stop-opacity:1"/></linearGradient>
        <linearGradient id="_Linear25" x1="0" y1="0" x2="1" y2="0" gradientUnits="userSpaceOnUse" gradientTransform="matrix(-59.0221,-72.4508,72.4508,-59.0221,1502.78,1169.23)"><stop offset="0" style="stop-color:white;stop-opacity:1"/><stop offset="1" style="stop-color:rgb(165,165,165);stop-opacity:1"/></linearGradient>
        <linearGradient id="_Linear26" x1="0" y1="0" x2="1" y2="0" gradientUnits="userSpaceOnUse" gradientTransform="matrix(-4.52128,-303.968,303.968,-4.52128,1009.79,2462.49)"><stop offset="0" style="stop-color:rgb(232,232,232);stop-opacity:1"/><stop offset="1" style="stop-color:rgb(132,130,130);stop-opacity:1"/></linearGradient>
        <linearGradient id="_Linear27" x1="0" y1="0" x2="1" y2="0" gradientUnits="userSpaceOnUse" gradientTransform="matrix(72.0474,-208.207,208.207,72.0474,1139.55,1070.25)"><stop offset="0" style="stop-color:white;stop-opacity:1"/><stop offset="1" style="stop-color:rgb(179,179,179);stop-opacity:1"/></linearGradient>
        <linearGradient id="_Linear28" x1="0" y1="0" x2="1" y2="0" gradientUnits="userSpaceOnUse" gradientTransform="matrix(88.9267,353.2,-353.2,88.9267,1539.08,517.217)"><stop offset="0" style="stop-color:white;stop-opacity:1"/><stop offset="1" style="stop-color:rgb(179,179,179);stop-opacity:1"/></linearGradient>
        <linearGradient id="_Linear29" x1="0" y1="0" x2="1" y2="0" gradientUnits="userSpaceOnUse" gradientTransform="matrix(43.1867,54.4607,-54.4607,43.1867,1010.8,971.049)"><stop offset="0" style="stop-color:white;stop-opacity:1"/><stop offset="1" style="stop-color:rgb(179,179,179);stop-opacity:1"/></linearGradient>
        <linearGradient id="_Linear30" x1="0" y1="0" x2="1" y2="0" gradientUnits="userSpaceOnUse" gradientTransform="matrix(-83.6906,352.938,-352.938,-83.6906,1296.33,344.982)"><stop offset="0" style="stop-color:white;stop-opacity:1"/><stop offset="1" style="stop-color:rgb(179,179,179);stop-opacity:1"/></linearGradient>
        <linearGradient id="_Linear31" x1="0" y1="0" x2="1" y2="0" gradientUnits="userSpaceOnUse" gradientTransform="matrix(-157.244,-114.698,114.698,-157.244,2164.69,1355.32)"><stop offset="0" style="stop-color:white;stop-opacity:1"/><stop offset="1" style="stop-color:rgb(179,179,179);stop-opacity:1"/></linearGradient>
        <linearGradient id="_Linear32" x1="0" y1="0" x2="1" y2="0" gradientUnits="userSpaceOnUse" gradientTransform="matrix(-275.382,-271.828,271.828,-275.382,2249.52,1636.78)"><stop offset="0" style="stop-color:rgb(178,178,178);stop-opacity:1"/><stop offset="1" style="stop-color:rgb(87,87,87);stop-opacity:1"/></linearGradient>
        <linearGradient id="_Linear33" x1="0" y1="0" x2="1" y2="0" gradientUnits="userSpaceOnUse" gradientTransform="matrix(91.4992,-48.3535,48.3535,91.4992,899.897,1636.28)"><stop offset="0" style="stop-color:white;stop-opacity:1"/><stop offset="1" style="stop-color:rgb(109,109,109);stop-opacity:1"/></linearGradient>
        <linearGradient id="_Linear34" x1="0" y1="0" x2="1" y2="0" gradientUnits="userSpaceOnUse" gradientTransform="matrix(133.871,-42.6273,42.6273,133.871,890.189,1523.96)"><stop offset="0" style="stop-color:white;stop-opacity:1"/><stop offset="1" style="stop-color:rgb(179,179,179);stop-opacity:1"/></linearGradient>
        <linearGradient id="_Linear35" x1="0" y1="0" x2="1" y2="0" gradientUnits="userSpaceOnUse" gradientTransform="matrix(201.724,-20.2156,20.2156,201.724,1090.94,1493.92)"><stop offset="0" style="stop-color:white;stop-opacity:1"/><stop offset="1" style="stop-color:rgb(135,135,135);stop-opacity:1"/></linearGradient>
        <linearGradient id="_Linear36" x1="0" y1="0" x2="1" y2="0" gradientUnits="userSpaceOnUse" gradientTransform="matrix(23.4816,-99.8944,99.8944,23.4816,1022.03,1634.21)"><stop offset="0" style="stop-color:white;stop-opacity:1"/><stop offset="1" style="stop-color:rgb(179,179,179);stop-opacity:1"/></linearGradient>
        <linearGradient id="_Linear37" x1="0" y1="0" x2="1" y2="0" gradientUnits="userSpaceOnUse" gradientTransform="matrix(237.049,-87.5966,87.5966,237.049,791.18,1514.56)"><stop offset="0" style="stop-color:white;stop-opacity:1"/><stop offset="1" style="stop-color:rgb(90,90,90);stop-opacity:1"/></linearGradient>
    </defs>
</svg>
